<?xml version="1.0" encoding="UTF-8" standalone="no"?>
<svg
   xmlns:dc="http://purl.org/dc/elements/1.1/"
   xmlns:cc="http://creativecommons.org/ns#"
   xmlns:rdf="http://www.w3.org/1999/02/22-rdf-syntax-ns#"
   xmlns:svg="http://www.w3.org/2000/svg"
   xmlns="http://www.w3.org/2000/svg"
   xmlns:sodipodi="http://sodipodi.sourceforge.net/DTD/sodipodi-0.dtd"
   xmlns:inkscape="http://www.inkscape.org/namespaces/inkscape"
   sodipodi:docname="logo.svg"
   inkscape:version="1.0 (4035a4fb49, 2020-05-01)"
   id="svg360"
   version="1.1"
   viewBox="0 0 83.662543 28.860469"
   height="109.07893"
   width="316.2049">
  <defs
     id="defs354">
    <clipPath
       clipPathUnits="userSpaceOnUse"
       id="clipPath252">
      <path
         d="M 0,500 H 750 V 0 H 0 Z"
         id="path250" />
    </clipPath>
    <clipPath
       clipPathUnits="userSpaceOnUse"
       id="clipPath252-3">
      <path
         d="M 0,500 H 750 V 0 H 0 Z"
         id="path250-7" />
    </clipPath>
    <clipPath
       clipPathUnits="userSpaceOnUse"
       id="clipPath292">
      <path
         d="M 0,500 H 750 V 0 H 0 Z"
         id="path290" />
    </clipPath>
    <clipPath
       clipPathUnits="userSpaceOnUse"
       id="clipPath252-5">
      <path
         d="M 0,500 H 750 V 0 H 0 Z"
         id="path250-2" />
    </clipPath>
  </defs>
  <sodipodi:namedview
     fit-margin-bottom="0"
     fit-margin-right="0"
     fit-margin-left="0"
     fit-margin-top="0"
     units="px"
     inkscape:window-maximized="1"
     inkscape:window-y="-8"
     inkscape:window-x="-8"
     inkscape:window-height="1027"
     inkscape:window-width="1920"
     showgrid="false"
     inkscape:document-rotation="0"
     inkscape:current-layer="g288"
     inkscape:document-units="px"
     inkscape:cy="97.19993"
     inkscape:cx="256.93786"
     inkscape:zoom="1.979899"
     inkscape:pageshadow="2"
     inkscape:pageopacity="0.0"
     borderopacity="1.0"
     bordercolor="#666666"
     pagecolor="#ffffff"
     id="base" />
  <metadata
     id="metadata357">
    <rdf:RDF>
      <cc:Work
         rdf:about="">
        <dc:format>image/svg+xml</dc:format>
        <dc:type
           rdf:resource="http://purl.org/dc/dcmitype/StillImage" />
        <dc:title></dc:title>
      </cc:Work>
    </rdf:RDF>
  </metadata>
  <g
     transform="translate(-56.371923,-131.41046)"
     id="layer1"
     inkscape:groupmode="layer"
     inkscape:label="Layer 1">
    <g
       transform="matrix(0.35277777,0,0,-0.35277777,54.488457,259.95112)"
       clip-path="url(#clipPath292)"
       id="g288">
      <g
         transform="translate(-7.197337,-31.062191)"
         id="g1585">
        <g
           id="g246"
           transform="translate(-44.699255,27.274119)">
          <g
             id="g254"
             transform="translate(263.2801,293.2725)">
            <path
               d="m 0,0 h -143.341 c -4.286,0 -7.614,3.489 -7.12,7.464 l 5.899,47.517 c 0.419,3.375 3.481,5.922 7.12,5.922 H 5.9 c 4.286,0 7.613,-3.488 7.12,-7.464 L 7.12,5.922 C 6.701,2.546 3.639,0 0,0"
               style="fill:#ffb4af;fill-opacity:1;fill-rule:nonzero;stroke:none"
               id="path256" />
          </g>
          <g
             id="g258"
             transform="translate(254.3197,304.252)">
            <path
               d="m 0,0 c -2.434,0 -4.722,1.011 -6.279,2.773 -1.445,1.635 -2.096,3.7 -1.833,5.814 l 5.9,47.517 c 0.481,3.876 3.969,6.799 8.112,6.799 h 25 c 2.434,0 4.723,-1.01 6.28,-2.773 1.445,-1.635 2.095,-3.699 1.833,-5.814 L 33.113,6.799 C 32.632,2.923 29.145,0 25.001,0 Z"
               style="fill:#ffb4af;fill-opacity:1;fill-rule:nonzero;stroke:none"
               id="path260" />
          </g>
          <g
             id="g262"
             transform="translate(285.2201,368.1553)">
            <path
               d="m 0,0 h -25 c -4.648,0 -8.562,-3.3 -9.105,-7.676 l -5.9,-47.516 c -0.298,-2.404 0.439,-4.747 2.076,-6.6 1.746,-1.977 4.308,-3.111 7.029,-3.111 h 25.001 c 4.647,0 8.561,3.3 9.104,7.676 L 9.104,-9.71 C 9.403,-7.307 8.666,-4.963 7.029,-3.111 5.282,-1.134 2.72,0 0,0 m 0,-2 c 4.286,0 7.614,-3.489 7.12,-7.464 L 1.22,-56.98 c -0.419,-3.376 -3.48,-5.923 -7.119,-5.923 H -30.9 c -4.286,0 -7.614,3.488 -7.12,7.464 l 5.899,47.517 C -31.701,-4.546 -28.64,-2 -25,-2 H 0"
               style="fill:#ffd4b7;fill-opacity:1;fill-rule:nonzero;stroke:none"
               id="path264" />
          </g>
          <g
             id="g266"
             transform="translate(94.6078,287.3457)"
             style="fill:#ffb4af;fill-opacity:1">
            <path
               d="m 0,0 c -3.168,0 -6.146,1.234 -8.386,3.474 l -24.519,24.519 c -2.24,2.24 -3.473,5.217 -3.473,8.385 0,3.168 1.233,6.146 3.473,8.386 l 24.519,24.519 c 2.24,2.24 5.218,3.473 8.386,3.473 3.167,0 6.146,-1.233 8.385,-3.473 L 32.904,44.764 c 2.24,-2.24 3.474,-5.218 3.474,-8.386 0,-3.168 -1.234,-6.145 -3.474,-8.385 L 8.385,3.474 C 6.146,1.234 3.167,0 0,0"
               style="fill:#ffb4af;fill-opacity:1;fill-rule:nonzero;stroke:none"
               id="path268" />
          </g>
          <g
             id="g270"
             transform="translate(94.6073,361.1021)">
            <path
               d="m 0,0 c -3.435,0 -6.664,-1.337 -9.092,-3.766 l -24.52,-24.52 c -5.013,-5.013 -5.013,-13.171 0,-18.185 l 24.52,-24.519 c 2.428,-2.428 5.657,-3.766 9.092,-3.766 3.435,0 6.664,1.338 9.093,3.766 l 24.519,24.519 c 5.013,5.014 5.013,13.172 0,18.185 L 9.093,-3.766 C 6.664,-1.337 3.435,0 0,0 m 0,-2 c 2.779,0 5.558,-1.06 7.679,-3.18 L 32.198,-29.7 c 4.24,-4.24 4.24,-11.116 0,-15.356 L 7.679,-69.576 c -2.121,-2.12 -4.9,-3.18 -7.679,-3.18 -2.779,0 -5.558,1.06 -7.678,3.18 l -24.519,24.52 c -4.241,4.24 -4.241,11.116 0,15.356 L -7.678,-5.18 C -5.558,-3.06 -2.779,-2 0,-2"
               style="fill:#ffd4b7;fill-opacity:1;fill-rule:nonzero;stroke:none"
               id="path272" />
          </g>
        </g>
        <text
           transform="scale(1,-1)"
           id="text276"
           style="font-style:italic;font-variant:normal;font-weight:bold;font-stretch:normal;font-size:43.4648px;font-family:'Open Sans';-inkscape-font-specification:OpenSans-BoldItalic;writing-mode:lr-tb;fill:#f7f7f7;fill-opacity:1;fill-rule:nonzero;stroke:none;stroke-width:0.999998"
           x="100.34229"
           y="-334.98022"><tspan
             id="tspan274"
             sodipodi:role="line"
             y="-334.98022"
             x="100.34229 123.29163 137.72191 163.80075"
             style="stroke-width:0.999998">LIVE</tspan></text>
        <text
           transform="scale(1,-1)"
           id="text280"
           style="font-style:italic;font-variant:normal;font-weight:bold;font-stretch:normal;font-size:11.408px;font-family:'Open Sans';-inkscape-font-specification:OpenSans-BoldItalic;writing-mode:lr-tb;fill:#ffffff;fill-opacity:1;fill-rule:nonzero;stroke:none;stroke-width:0.999998"
           x="213.46436"
           y="-369.79663"><tspan
             id="tspan278"
             sodipodi:role="line"
             y="-369.79663"
             x="213.46436 219.63608 227.63309 233.65654"
             style="stroke-width:0.999998">FULL</tspan></text>
        <text
           transform="scale(1,-1)"
           id="text284"
           style="font-style:italic;font-variant:normal;font-weight:bold;font-stretch:normal;font-size:20.5001px;font-family:'Open Sans';-inkscape-font-specification:OpenSans-BoldItalic;writing-mode:lr-tb;fill:#ffffff;fill-opacity:1;fill-rule:nonzero;stroke:none;stroke-width:0.999998"
           x="209.84818"
           y="-352.38931"><tspan
             id="tspan282"
             sodipodi:role="line"
             y="-352.38931"
             x="209.84818 224.40324"
             style="stroke-width:0.999998">HD</tspan></text>
        <g
           id="g294"
           transform="translate(43.752749,363.95482)">
          <path
             d="m 0,0 v -24.74 c 0,-1.882 2.188,-2.918 3.644,-1.725 l 15.098,12.37 c 1.089,0.892 1.089,2.558 0,3.45 L 3.644,1.726 C 2.188,2.918 0,1.882 0,0"
             style="fill:#ffffff;fill-opacity:1;fill-rule:nonzero;stroke:none"
             id="path296" />
        </g>
      </g>
      <g
         transform="translate(94.1717,368.3311)"
         id="g302" />
    </g>
  </g>
</svg>
